{"glyphs":{"0":{"ha":713,"x_min":36,"x_max":676,"o":"m 676 450 q 594 783 676 657 q 356 908 513 908 q 118 783 200 908 q 36 450 36 657 q 118 117 36 243 q 356 -10 200 -10 q 594 117 513 -10 q 676 450 676 243 l 676 450 m 493 450 q 460 232 493 301 q 356 163 426 163 q 253 232 286 163 q 219 450 219 301 q 253 668 219 599 q 356 738 286 738 q 460 668 426 738 q 493 450 493 599 l 493 450 z "},"1":{"ha":460,"x_min":47,"x_max":413,"o":"m 413 149 l 413 881 l 47 821 l 47 703 l 231 703 l 231 149 l 232 0 l 408 0 l 413 149 z "},"2":{"ha":681,"x_min":32,"x_max":644,"o":"m 644 10 l 644 175 l 285 175 l 485 351 q 597 488 565 424 q 631 638 631 550 q 549 833 631 757 q 329 908 467 908 q 114 831 197 908 q 32 624 32 751 q 36 572 32 593 l 214 572 l 211 621 q 242 708 211 675 q 329 743 271 743 q 415 713 382 743 q 449 633 449 682 q 383 493 449 554 l 38 157 l 38 10 l 644 10 z "},"3":{"ha":688,"x_min":26,"x_max":649,"o":"m 254 385 l 335 385 q 436 354 404 385 q 469 268 469 322 q 433 186 469 218 q 338 153 397 153 q 240 188 275 153 q 203 278 206 221 l 26 278 q 117 69 32 147 q 338 -10 203 -10 q 561 71 474 -10 q 649 268 649 151 q 521 465 649 415 q 639 650 639 517 q 560 838 639 767 q 346 908 481 908 q 129 826 213 908 q 44 622 44 744 l 221 622 q 253 710 221 674 q 346 746 283 746 q 433 715 404 746 q 464 639 464 686 q 432 564 464 592 q 336 535 400 535 l 254 535 l 254 385 z "},"4":{"ha":703,"x_min":13,"x_max":675,"o":"m 590 347 l 590 890 l 401 890 l 13 324 l 13 189 l 425 189 l 425 10 l 590 10 l 590 189 l 675 189 l 675 347 l 590 347 m 425 347 l 213 347 l 424 654 l 425 654 l 425 347 z "},"5":{"ha":689,"x_min":32,"x_max":654,"o":"m 51 375 l 215 375 l 226 394 q 268 429 238 411 q 339 446 299 446 q 438 407 400 446 q 474 301 474 367 q 438 196 474 235 q 339 156 400 156 q 254 185 286 156 q 214 256 224 214 l 32 256 q 125 64 42 136 q 339 -10 207 -10 q 567 78 481 -10 q 654 301 654 165 q 640 407 654 356 q 596 503 626 457 q 508 575 564 547 q 376 601 451 601 q 296 586 335 601 q 236 550 257 569 l 261 724 l 606 724 l 606 890 l 125 890 l 51 375 l 51 375 z "},"6":{"ha":688,"x_min":28,"x_max":663,"o":"m 575 79 q 663 296 663 167 q 588 504 663 419 q 385 588 513 588 q 282 564 325 588 q 540 890 361 699 l 322 890 q 103 585 176 725 q 28 314 28 443 q 115 83 28 176 q 347 -10 203 -10 q 575 79 486 -10 l 575 79 m 347 150 q 251 190 289 150 q 214 296 214 232 q 251 401 214 361 q 347 442 289 442 q 442 401 406 442 q 479 296 479 361 q 442 190 479 232 q 347 150 406 150 l 347 150 z "},"7":{"ha":738,"x_min":51,"x_max":686,"o":"m 51 890 l 51 724 l 231 726 l 483 726 q 229 10 292 431 l 417 10 q 686 729 476 456 l 686 890 l 51 890 z "},"8":{"ha":683,"x_min":36,"x_max":647,"o":"m 647 249 q 617 372 647 314 q 531 465 588 431 q 628 651 628 526 q 550 836 628 764 q 342 908 472 908 q 135 838 211 908 q 57 654 57 767 q 153 465 57 528 q 65 372 96 431 q 36 249 36 314 q 118 61 36 132 q 342 -10 200 -10 q 565 61 483 -10 q 647 249 647 132 l 647 249 m 465 263 q 433 182 465 215 q 342 149 401 149 q 250 182 282 149 q 217 263 217 215 q 251 344 217 313 q 342 376 285 376 q 432 344 399 376 q 465 263 465 313 l 465 263 m 257 569 q 226 650 226 600 q 256 722 226 692 q 342 754 286 754 q 428 721 397 754 q 460 647 460 689 q 428 569 460 599 q 342 539 396 539 q 257 569 288 539 l 257 569 z "},"9":{"ha":688,"x_min":24,"x_max":658,"o":"m 113 821 q 24 604 24 733 q 99 396 24 479 q 301 313 174 313 q 404 335 361 313 q 146 10 325 204 l 365 10 q 585 315 510 175 q 658 586 658 456 q 571 815 658 722 q 340 908 483 908 q 113 821 201 908 l 113 821 m 340 750 q 436 710 399 750 q 472 604 472 668 q 436 499 472 539 q 340 457 399 457 q 244 499 282 457 q 207 604 207 539 q 244 710 207 668 q 340 750 282 750 l 340 750 z "},"\u0000":{"ha":0,"x_min":0,"x_max":0,"o":"z "},"\n":{"ha":0,"x_min":0,"x_max":0,"o":"z "},"\r":{"ha":0,"x_min":0,"x_max":0,"o":"z "}," ":{"ha":494,"x_min":0,"x_max":0,"o":"z "},"!":{"ha":304,"x_min":40,"x_max":264,"o":"m 232 46 q 264 126 264 76 q 232 207 264 175 q 151 238 201 238 q 72 207 104 238 q 40 126 40 175 q 72 47 40 78 q 151 15 104 15 q 232 46 201 15 l 232 46 m 225 296 l 256 907 l 47 907 l 79 296 l 225 296 z "},"\"":{"ha":554,"x_min":22,"x_max":544,"o":"m 22 554 l 168 554 l 286 907 l 107 907 l 22 554 m 281 554 l 425 554 l 544 907 l 365 907 l 281 554 z "},"“":{"ha":554,"x_min":22,"x_max":544,"o":"m 22 554 l 168 554 l 286 907 l 107 907 l 22 554 m 281 554 l 425 554 l 544 907 l 365 907 l 281 554 z "},"”":{"ha":554,"x_min":22,"x_max":544,"o":"m 22 554 l 168 554 l 286 907 l 107 907 l 22 554 m 281 554 l 425 554 l 544 907 l 365 907 l 281 554 z "},"#":{"ha":1068,"x_min":47,"x_max":1021,"o":"m 864 638 l 936 881 l 750 881 l 676 638 l 524 638 l 596 881 l 410 881 l 338 638 l 165 638 l 126 508 l 299 508 l 257 372 l 86 372 l 47 243 l 219 243 l 146 0 l 332 0 l 406 243 l 558 243 l 486 0 l 672 0 l 744 243 l 903 243 l 942 372 l 783 372 l 825 508 l 982 508 l 1021 638 l 864 638 m 639 508 l 597 372 l 444 372 l 485 508 l 639 508 z "},"$":{"ha":972,"x_min":47,"x_max":925,"o":"m 565 -139 l 565 1 q 828 88 731 18 q 925 261 925 157 q 614 535 925 472 l 565 543 l 565 744 q 681 622 676 717 l 925 622 q 831 819 925 739 q 565 914 735 899 l 565 1053 l 443 1053 l 443 914 q 182 832 285 903 q 79 657 79 761 q 149 497 79 564 q 353 403 218 431 l 443 385 l 443 164 q 333 210 371 174 q 293 294 294 244 l 47 294 q 150 89 47 172 q 443 -1 251 7 l 443 -139 l 565 -139 m 360 719 q 443 750 392 743 l 443 568 q 415 578 436 571 q 388 589 393 586 q 368 597 382 590 q 350 608 354 603 q 338 622 346 613 q 329 640 331 631 q 326 663 326 650 q 360 719 326 696 l 360 719 m 565 167 l 565 360 q 674 261 674 331 q 565 167 674 188 l 565 167 z "},"%":{"ha":975,"x_min":47,"x_max":928,"o":"m 671 899 l 185 18 l 313 18 l 799 899 l 671 899 m 400 557 q 457 697 457 614 q 400 838 457 781 q 253 894 343 894 q 104 838 161 894 q 47 697 47 781 q 104 557 47 614 q 253 500 161 500 q 400 557 343 500 l 400 557 m 153 697 q 181 776 153 747 q 253 804 208 804 q 324 776 296 804 q 351 697 351 747 q 324 619 351 647 q 253 590 296 590 q 181 619 208 590 q 153 697 153 647 l 153 697 m 871 338 q 722 394 814 394 q 575 338 631 394 q 518 197 518 281 q 575 57 518 114 q 722 0 631 0 q 871 57 814 0 q 928 197 928 114 q 871 338 928 281 l 871 338 m 793 119 q 722 90 765 90 q 651 119 679 90 q 624 197 624 147 q 651 276 624 247 q 722 304 679 304 q 793 276 765 304 q 822 197 822 247 q 793 119 822 147 l 793 119 z "},"&":{"ha":893,"x_min":26,"x_max":844,"o":"m 196 515 q 26 265 26 440 q 117 78 26 149 q 346 7 207 7 q 589 78 485 7 l 638 26 l 844 26 l 696 189 q 774 442 774 297 q 769 510 774 475 l 610 510 l 614 439 q 586 311 614 368 l 446 463 q 632 696 632 546 q 564 858 632 790 q 374 925 496 925 q 183 858 253 925 q 115 696 115 790 q 196 515 115 601 l 196 515 m 238 194 q 196 278 196 226 q 221 347 196 319 q 300 400 244 375 l 485 194 q 351 161 426 161 q 238 194 278 161 l 238 194 m 304 760 q 374 785 331 785 q 443 758 415 785 q 469 694 469 732 q 379 593 469 631 l 343 576 l 332 588 q 278 694 278 650 q 304 760 278 733 l 304 760 z "},"'":{"ha":296,"x_min":22,"x_max":286,"o":"m 22 554 l 168 554 l 286 907 l 107 907 l 22 554 z "},"‘":{"ha":296,"x_min":22,"x_max":286,"o":"m 22 554 l 168 554 l 286 907 l 107 907 l 22 554 z "},"’":{"ha":296,"x_min":22,"x_max":286,"o":"m 22 554 l 168 554 l 286 907 l 107 907 l 22 554 z "},"(":{"ha":342,"x_min":42,"x_max":356,"o":"m 356 957 l 178 957 q 42 388 42 733 q 178 -181 42 43 l 356 -181 q 222 388 222 83 q 356 957 222 693 l 356 957 z "},")":{"ha":342,"x_min":-15,"x_max":299,"o":"m -15 -181 l 163 -181 q 299 388 299 43 q 163 957 299 733 l -15 957 q 118 388 118 693 q -15 -181 118 83 l -15 -181 z "},"*":{"ha":497,"x_min":22,"x_max":476,"o":"m 442 826 l 306 782 l 306 925 l 193 925 l 193 782 l 57 826 l 22 719 l 158 675 l 74 558 l 164 493 l 249 610 l 332 493 l 424 560 l 340 675 l 476 719 l 442 826 z "},";":{"ha":301,"x_min":3,"x_max":272,"o":"m 3 -150 l 160 -150 l 268 225 l 74 225 l 3 -150 m 272 567 q 238 651 272 618 q 153 686 204 686 q 67 651 101 686 q 33 567 33 618 q 67 482 33 515 q 153 449 101 449 q 239 482 206 449 q 272 567 272 515 l 272 567 z "},"<":{"ha":644,"x_min":21,"x_max":608,"o":"m 240 338 l 608 461 l 608 635 l 21 407 l 21 268 l 608 39 l 608 214 l 240 338 z "},">":{"ha":644,"x_min":35,"x_max":622,"o":"m 622 268 l 622 407 l 35 635 l 35 461 l 403 338 l 35 214 l 35 39 l 622 268 z "},"?":{"ha":611,"x_min":13,"x_max":590,"o":"m 21 589 l 197 589 l 190 656 q 222 733 190 703 q 303 764 253 764 q 382 736 353 764 q 413 660 413 708 q 390 600 413 629 q 339 543 369 569 q 275 489 308 517 q 221 415 242 460 q 199 317 199 371 q 201 289 199 306 l 375 289 l 372 314 q 396 369 372 342 q 450 425 418 397 q 514 482 481 453 q 569 560 547 513 q 590 665 590 608 q 514 853 590 779 q 301 925 438 925 q 92 851 171 925 q 13 663 13 776 q 21 589 13 621 l 21 589 m 374 47 q 406 126 406 78 q 374 207 406 175 q 294 238 343 238 q 214 207 244 238 q 182 126 182 175 q 214 46 182 76 q 294 15 244 15 q 374 47 343 15 l 374 47 z "},"@":{"ha":981,"x_min":32,"x_max":947,"o":"m 638 14 q 504 -12 572 -12 q 253 81 346 -12 q 158 338 158 174 q 253 596 158 496 q 500 696 347 696 q 740 622 647 696 q 832 410 832 550 q 799 272 832 325 q 717 218 765 218 q 688 231 699 218 q 678 263 678 244 q 679 279 678 269 l 736 556 l 621 556 l 611 514 q 476 574 569 574 q 318 496 376 574 q 260 308 260 418 q 311 164 260 217 q 449 110 364 110 q 575 167 529 110 q 690 110 608 110 q 869 190 790 110 q 947 415 947 271 q 824 697 947 589 q 503 807 701 807 q 167 672 303 807 q 32 335 32 538 q 157 4 32 132 q 496 -124 282 -124 q 722 -68 617 -124 q 892 82 828 -14 l 747 82 q 638 14 704 40 l 638 14 m 551 264 q 474 219 524 219 q 414 243 436 219 q 390 310 390 265 q 421 417 390 376 q 503 458 451 458 q 579 371 579 458 q 551 264 579 308 l 551 264 z "},"A":{"ha":904,"x_min":-10,"x_max":913,"o":"m 565 883 l 339 883 l -10 1 l 199 1 l 317 297 l 600 297 l 715 1 l 913 1 l 565 883 m 326 329 l 456 660 l 458 660 l 588 329 l 326 329 z "},"À":{"ha":904,"x_min":-10,"x_max":913,"o":"m 565 883 l 339 883 l -10 1 l 199 1 l 317 297 l 600 297 l 715 1 l 913 1 l 565 883 m 326 329 l 456 660 l 458 660 l 588 329 l 326 329 z "},"Á":{"ha":904,"x_min":-10,"x_max":913,"o":"m 565 883 l 339 883 l -10 1 l 199 1 l 317 297 l 600 297 l 715 1 l 913 1 l 565 883 m 326 329 l 456 660 l 458 660 l 588 329 l 326 329 z "},"Â":{"ha":904,"x_min":-10,"x_max":913,"o":"m 565 883 l 339 883 l -10 1 l 199 1 l 317 297 l 600 297 l 715 1 l 913 1 l 565 883 m 326 329 l 456 660 l 458 660 l 588 329 l 326 329 z "},"Ã":{"ha":904,"x_min":-10,"x_max":913,"o":"m 565 883 l 339 883 l -10 1 l 199 1 l 317 297 l 600 297 l 715 1 l 913 1 l 565 883 m 326 329 l 456 660 l 458 660 l 588 329 l 326 329 z "},"Ä":{"ha":904,"x_min":-10,"x_max":913,"o":"m 565 883 l 339 883 l -10 1 l 199 1 l 317 297 l 600 297 l 715 1 l 913 1 l 565 883 m 326 329 l 456 660 l 458 660 l 588 329 l 326 329 z "},"Å":{"ha":904,"x_min":-10,"x_max":913,"o":"m 565 883 l 339 883 l -10 1 l 199 1 l 317 297 l 600 297 l 715 1 l 913 1 l 565 883 m 326 329 l 456 660 l 458 660 l 588 329 l 326 329 z "},"B":{"ha":783,"x_min":39,"x_max":757,"o":"m 718 372 q 615 446 679 422 q 710 522 675 472 q 743 640 743 572 q 667 815 743 747 q 436 883 589 883 l 47 883 q 44 601 39 742 q 243 453 50 463 q 49 294 53 440 q 47 1 46 147 l 454 1 q 679 68 600 1 q 757 251 757 135 q 718 372 757 321 l 718 372 m 232 529 l 232 721 l 435 721 q 524 693 494 721 q 553 625 553 667 q 522 553 553 578 q 435 529 492 529 l 232 529 m 449 164 l 232 164 l 232 365 l 449 365 q 536 338 507 365 q 565 265 565 311 q 449 164 565 164 l 449 164 z "},"C":{"ha":936,"x_min":18,"x_max":929,"o":"m 726 331 q 640 204 706 249 q 482 158 576 158 q 288 235 357 158 q 218 443 218 313 q 288 651 218 575 q 482 729 357 729 q 640 683 576 729 q 725 560 704 639 l 886 686 q 781 808 849 757 q 482 901 658 901 q 150 775 281 901 q 18 443 18 649 q 150 113 18 239 q 482 -14 281 -14 q 781 79 658 -14 q 929 331 904 172 l 726 331 l 726 331 z "},"Ç":{"ha":936,"x_min":18,"x_max":929,"o":"m 726 331 q 640 204 706 249 q 482 158 576 158 q 288 235 357 158 q 218 443 218 313 q 288 651 218 575 q 482 729 357 729 q 640 683 576 729 q 725 560 704 639 l 886 686 q 781 808 849 757 q 482 901 658 901 q 150 775 281 901 q 18 443 18 649 q 150 113 18 239 q 482 -14 281 -14 q 781 79 658 -14 q 929 331 904 172 l 726 331 l 726 331 z "},"D":{"ha":864,"x_min":17,"x_max":846,"o":"m 718 761 q 360 883 590 883 l 29 883 q 64 608 36 735 q 217 447 92 482 q 61 244 107 356 q 29 1 17 133 l 360 1 q 718 124 590 1 q 846 442 846 244 q 718 761 846 640 l 718 761 m 574 240 q 356 168 501 168 l 219 168 l 219 717 l 356 717 q 574 644 501 717 q 646 442 646 571 q 574 240 646 314 l 574 240 z "},"E":{"ha":906,"x_min":51,"x_max":868,"o":"m 868 717 l 868 883 l 51 883 l 51 1 l 868 1 l 868 168 l 225 168 l 225 365 l 863 365 l 863 532 l 225 532 l 225 717 l 868 717 z "},"È":{"ha":906,"x_min":51,"x_max":868,"o":"m 868 717 l 868 883 l 51 883 l 51 1 l 868 1 l 868 168 l 225 168 l 225 365 l 863 365 l 863 532 l 225 532 l 225 717 l 868 717 z "},"É":{"ha":906,"x_min":51,"x_max":868,"o":"m 868 717 l 868 883 l 51 883 l 51 1 l 868 1 l 868 168 l 225 168 l 225 365 l 863 365 l 863 532 l 225 532 l 225 717 l 868 717 z "},"Ê":{"ha":906,"x_min":51,"x_max":868,"o":"m 868 717 l 868 883 l 51 883 l 51 1 l 868 1 l 868 168 l 225 168 l 225 365 l 863 365 l 863 532 l 225 532 l 225 717 l 868 717 z "},"Ë":{"ha":906,"x_min":51,"x_max":868,"o":"m 868 717 l 868 883 l 51 883 l 51 1 l 868 1 l 868 168 l 225 168 l 225 365 l 863 365 l 863 532 l 225 532 l 225 717 l 868 717 z "},"F":{"ha":883,"x_min":51,"x_max":867,"o":"m 867 717 l 867 883 l 51 883 l 51 1 l 244 1 l 244 365 l 858 365 l 858 532 l 244 532 l 244 717 l 867 717 z "},"G":{"ha":963,"x_min":18,"x_max":947,"o":"m 946 489 l 550 489 l 550 326 l 744 326 q 653 201 721 247 q 489 156 585 156 q 292 235 365 156 q 218 443 218 314 q 290 651 218 575 q 489 729 364 729 q 644 686 579 729 q 732 571 711 644 l 735 571 l 889 692 q 781 810 849 760 q 489 901 658 901 q 153 774 286 901 q 18 443 18 647 q 150 114 18 239 q 489 -11 282 -11 q 817 114 685 -11 q 947 443 947 240 q 946 489 947 471 l 946 489 z "},"H":{"ha":924,"x_min":51,"x_max":872,"o":"m 669 883 l 669 458 l 256 458 l 256 883 l 51 883 l 51 1 l 256 1 l 256 428 l 669 428 l 669 1 l 872 1 l 872 883 l 669 883 z "},"I":{"ha":306,"x_min":51,"x_max":254,"o":"m 254 1 l 254 883 l 51 883 l 51 1 l 254 1 z "},"Ì":{"ha":306,"x_min":51,"x_max":254,"o":"m 254 1 l 254 883 l 51 883 l 51 1 l 254 1 z "},"Í":{"ha":306,"x_min":51,"x_max":254,"o":"m 254 1 l 254 883 l 51 883 l 51 1 l 254 1 z "},"Î":{"ha":306,"x_min":51,"x_max":254,"o":"m 254 1 l 254 883 l 51 883 l 51 1 l 254 1 z "},"Ï":{"ha":306,"x_min":51,"x_max":254,"o":"m 254 1 l 254 883 l 51 883 l 51 1 l 254 1 z "},"J":{"ha":739,"x_min":1,"x_max":694,"o":"m 489 883 l 489 286 q 453 183 489 221 q 347 146 417 146 q 244 179 283 146 q 207 271 207 211 q 211 331 207 308 l 6 331 l 1 271 q 96 61 1 138 q 347 -14 192 -14 q 600 69 506 -14 q 694 292 694 151 l 694 883 l 489 883 z "},"K":{"ha":939,"x_min":51,"x_max":950,"o":"m 553 517 l 935 883 l 667 883 l 258 464 l 258 883 l 51 883 l 51 1 l 258 1 l 258 233 l 411 381 l 696 1 l 950 1 l 553 517 z "},"L":{"ha":864,"x_min":51,"x_max":867,"o":"m 246 168 l 246 883 l 51 883 l 51 1 l 867 1 l 867 168 l 246 168 z "},"M":{"ha":1089,"x_min":51,"x_max":1038,"o":"m 844 886 l 544 546 l 244 886 l 51 886 l 51 6 l 253 6 l 253 606 l 542 288 l 547 288 l 836 606 l 836 6 l 1038 6 l 1038 886 l 844 886 z "},"N":{"ha":925,"x_min":51,"x_max":874,"o":"m 679 883 l 679 64 l 251 883 l 51 883 l 51 1 l 246 1 l 246 819 l 672 1 l 874 1 l 874 883 l 679 883 z "},"Ñ":{"ha":925,"x_min":51,"x_max":874,"o":"m 679 883 l 679 64 l 251 883 l 51 883 l 51 1 l 246 1 l 246 819 l 672 1 l 874 1 l 874 883 l 679 883 z "},"O":{"ha":1022,"x_min":17,"x_max":1004,"o":"m 865 771 q 511 901 726 901 q 156 771 294 901 q 17 442 17 640 q 156 114 17 244 q 511 -17 294 -17 q 865 114 726 -17 q 1004 442 1004 244 q 865 771 1004 640 l 865 771 m 718 235 q 511 156 638 156 q 303 235 383 156 q 222 442 222 314 q 303 650 222 571 q 511 729 383 729 q 718 650 638 729 q 799 442 799 571 q 718 235 799 314 l 718 235 z "},"Ò":{"ha":1022,"x_min":17,"x_max":1004,"o":"m 865 771 q 511 901 726 901 q 156 771 294 901 q 17 442 17 640 q 156 114 17 244 q 511 -17 294 -17 q 865 114 726 -17 q 1004 442 1004 244 q 865 771 1004 640 l 865 771 m 718 235 q 511 156 638 156 q 303 235 383 156 q 222 442 222 314 q 303 650 222 571 q 511 729 383 729 q 718 650 638 729 q 799 442 799 571 q 718 235 799 314 l 718 235 z "},"Ó":{"ha":1022,"x_min":17,"x_max":1004,"o":"m 865 771 q 511 901 726 901 q 156 771 294 901 q 17 442 17 640 q 156 114 17 244 q 511 -17 294 -17 q 865 114 726 -17 q 1004 442 1004 244 q 865 771 1004 640 l 865 771 m 718 235 q 511 156 638 156 q 303 235 383 156 q 222 442 222 314 q 303 650 222 571 q 511 729 383 729 q 718 650 638 729 q 799 442 799 571 q 718 235 799 314 l 718 235 z "},"Ô":{"ha":1022,"x_min":17,"x_max":1004,"o":"m 865 771 q 511 901 726 901 q 156 771 294 901 q 17 442 17 640 q 156 114 17 244 q 511 -17 294 -17 q 865 114 726 -17 q 1004 442 1004 244 q 865 771 1004 640 l 865 771 m 718 235 q 511 156 638 156 q 303 235 383 156 q 222 442 222 314 q 303 650 222 571 q 511 729 383 729 q 718 650 638 729 q 799 442 799 571 q 718 235 799 314 l 718 235 z "},"Õ":{"ha":1022,"x_min":17,"x_max":1004,"o":"m 865 771 q 511 901 726 901 q 156 771 294 901 q 17 442 17 640 q 156 114 17 244 q 511 -17 294 -17 q 865 114 726 -17 q 1004 442 1004 244 q 865 771 1004 640 l 865 771 m 718 235 q 511 156 638 156 q 303 235 383 156 q 222 442 222 314 q 303 650 222 571 q 511 729 383 729 q 718 650 638 729 q 799 442 799 571 q 718 235 799 314 l 718 235 z "},"Ö":{"ha":1022,"x_min":17,"x_max":1004,"o":"m 865 771 q 511 901 726 901 q 156 771 294 901 q 17 442 17 640 q 156 114 17 244 q 511 -17 294 -17 q 865 114 726 -17 q 1004 442 1004 244 q 865 771 1004 640 l 865 771 m 718 235 q 511 156 638 156 q 303 235 383 156 q 222 442 222 314 q 303 650 222 571 q 511 729 383 729 q 718 650 638 729 q 799 442 799 571 q 718 235 799 314 l 718 235 z "},"Ø":{"ha":1022,"x_min":17,"x_max":1004,"o":"m 865 771 q 511 901 726 901 q 156 771 294 901 q 17 442 17 640 q 156 114 17 244 q 511 -17 294 -17 q 865 114 726 -17 q 1004 442 1004 244 q 865 771 1004 640 l 865 771 m 718 235 q 511 156 638 156 q 303 235 383 156 q 222 442 222 314 q 303 650 222 571 q 511 729 383 729 q 718 650 638 729 q 799 442 799 571 q 718 235 799 314 l 718 235 z "},"P":{"ha":853,"x_min":51,"x_max":846,"o":"m 758 799 q 493 874 671 874 l 51 874 l 51 -7 l 264 -7 q 297 217 258 114 q 493 326 336 319 q 756 403 667 326 q 846 600 846 478 q 758 799 846 722 l 758 799 m 599 522 q 493 493 564 493 l 264 493 l 264 708 l 493 708 q 599 679 564 707 q 633 600 633 650 q 599 522 633 550 l 599 522 z "},"Q":{"ha":1022,"x_min":17,"x_max":1004,"o":"m 865 114 q 1004 442 1004 244 q 865 771 1004 640 q 511 901 726 901 q 156 771 294 901 q 17 442 17 640 q 156 114 17 244 q 511 -17 294 -17 q 739 29 638 -17 q 824 -24 772 -4 q 961 -44 875 -44 l 961 -15 q 842 0 888 -15 q 767 43 797 15 q 865 114 821 71 l 865 114 m 511 156 q 303 235 383 156 q 288 251 294 243 q 338 282 306 267 q 408 299 368 297 q 585 215 499 301 q 622 175 606 194 q 511 156 572 156 l 511 156 m 718 235 q 651 186 688 206 q 606 236 631 211 q 408 329 510 332 q 326 310 361 326 q 269 275 290 292 q 222 442 222 344 q 303 650 222 571 q 511 729 383 729 q 718 650 638 729 q 799 442 799 571 q 718 235 799 314 l 718 235 z "},"R":{"ha":861,"x_min":49,"x_max":871,"o":"m 654 351 q 785 449 740 382 q 831 603 831 514 q 744 803 831 728 q 499 879 657 879 l 49 879 l 49 -3 l 253 -3 q 279 222 247 115 q 449 332 311 329 l 635 -3 l 871 -3 l 654 351 m 594 525 q 499 497 563 497 l 253 497 l 253 713 l 499 713 q 593 682 561 713 q 626 603 626 653 q 594 525 626 553 l 594 525 z "},"S":{"ha":904,"x_min":13,"x_max":881,"o":"m 849 378 q 763 457 815 429 q 646 499 710 485 q 517 526 581 513 q 400 553 453 542 q 314 586 347 564 q 281 643 281 608 q 329 713 281 686 q 457 740 376 740 q 596 704 544 740 q 650 607 646 667 l 874 607 q 758 817 868 733 q 460 901 647 901 q 164 824 274 901 q 54 629 54 744 q 88 510 54 560 q 172 433 121 460 q 289 392 225 407 q 415 364 353 378 q 531 339 478 350 q 617 304 583 326 q 650 247 650 282 q 597 172 650 199 q 454 146 546 146 q 297 185 351 146 q 238 281 243 222 l 13 281 q 40 174 15 224 q 113 79 64 122 q 246 10 161 35 q 442 -15 331 -15 q 760 60 639 -15 q 881 254 881 135 q 849 378 881 326 l 849 378 z "},"T":{"ha":1006,"x_min":-4,"x_max":1008,"o":"m -4 886 l -4 715 l 396 715 l 396 6 l 608 6 l 608 715 l 1008 715 l 1008 886 l -4 886 z "},"U":{"ha":976,"x_min":39,"x_max":936,"o":"m 718 883 l 718 360 q 661 207 718 263 q 488 151 604 151 q 314 207 371 151 q 257 360 257 263 l 257 883 l 39 883 l 39 364 q 167 82 39 179 q 488 -17 296 -17 q 808 82 681 -17 q 936 364 936 179 l 936 883 l 718 883 z "},"Ù":{"ha":976,"x_min":39,"x_max":936,"o":"m 718 883 l 718 360 q 661 207 718 263 q 488 151 604 151 q 314 207 371 151 q 257 360 257 263 l 257 883 l 39 883 l 39 364 q 167 82 39 179 q 488 -17 296 -17 q 808 82 681 -17 q 936 364 936 179 l 936 883 l 718 883 z "},"Ú":{"ha":976,"x_min":39,"x_max":936,"o":"m 718 883 l 718 360 q 661 207 718 263 q 488 151 604 151 q 314 207 371 151 q 257 360 257 263 l 257 883 l 39 883 l 39 364 q 167 82 39 179 q 488 -17 296 -17 q 808 82 681 -17 q 936 364 936 179 l 936 883 l 718 883 z "},"Û":{"ha":976,"x_min":39,"x_max":936,"o":"m 718 883 l 718 360 q 661 207 718 263 q 488 151 604 151 q 314 207 371 151 q 257 360 257 263 l 257 883 l 39 883 l 39 364 q 167 82 39 179 q 488 -17 296 -17 q 808 82 681 -17 q 936 364 936 179 l 936 883 l 718 883 z "},"Ü":{"ha":976,"x_min":39,"x_max":936,"o":"m 718 883 l 718 360 q 661 207 718 263 q 488 151 604 151 q 314 207 371 151 q 257 360 257 263 l 257 883 l 39 883 l 39 364 q 167 82 39 179 q 488 -17 296 -17 q 808 82 681 -17 q 936 364 936 179 l 936 883 l 718 883 z "},"V":{"ha":906,"x_min":-14,"x_max":919,"o":"m 708 892 l 449 233 l 446 233 l 186 892 l -14 892 l 339 10 l 565 10 l 919 892 l 708 892 z "},"W":{"ha":1635,"x_min":-14,"x_max":1649,"o":"m 1438 892 l 1178 233 l 1175 233 l 917 888 l 919 892 l 708 892 l 449 233 l 446 233 l 186 892 l -14 892 l 339 10 l 565 10 l 817 636 l 1068 10 l 1294 10 l 1649 892 l 1438 892 z "},"X":{"ha":1035,"x_min":-12,"x_max":1047,"o":"m 651 468 l 1026 899 l 763 899 l 517 621 l 272 899 l 4 899 l 382 467 l -12 18 l 258 18 l 517 314 l 775 18 l 1047 18 l 651 468 z "},"Y":{"ha":939,"x_min":-28,"x_max":967,"o":"m 715 899 l 469 511 l 469 511 l 224 899 l -28 899 l 361 325 l 361 18 l 578 18 l 578 325 l 967 899 l 715 899 z "},"Ý":{"ha":939,"x_min":-28,"x_max":967,"o":"m 715 899 l 469 511 l 469 511 l 224 899 l -28 899 l 361 325 l 361 18 l 578 18 l 578 325 l 967 899 l 715 899 z "},"Ÿ":{"ha":939,"x_min":-28,"x_max":967,"o":"m 715 899 l 469 511 l 469 511 l 224 899 l -28 899 l 361 325 l 361 18 l 578 18 l 578 325 l 967 899 l 715 899 z "},"Z":{"ha":892,"x_min":15,"x_max":876,"o":"m 297 185 l 869 740 l 869 899 l 21 899 l 21 732 l 588 732 l 15 176 l 15 18 l 876 18 l 876 185 l 297 185 z "},"^":{"ha":604,"x_min":4,"x_max":600,"o":"m 371 906 l 232 906 l 4 342 l 178 342 l 301 679 l 426 342 l 600 342 l 371 906 z "},"a":{"ha":715,"x_min":18,"x_max":697,"o":"m 678 135 q 642 176 642 135 l 642 431 q 565 610 642 546 q 342 674 490 674 q 128 617 201 674 q 115 607 121 613 q 103 593 108 600 q 163 438 38 476 q 313 403 289 399 l 285 397 q 18 182 18 356 q 79 43 18 97 q 258 -10 139 -10 q 494 78 410 -10 q 650 -4 532 -4 q 697 1 683 -4 l 697 136 l 678 135 m 465 299 l 465 275 q 422 167 465 207 q 300 128 379 128 q 197 194 197 128 q 301 318 208 290 q 401 417 394 347 q 292 436 383 415 q 249 503 200 456 q 342 528 281 526 q 465 442 458 528 l 465 443 l 465 299 l 465 299 z "},"à":{"ha":715,"x_min":18,"x_max":697,"o":"m 678 135 q 642 176 642 135 l 642 431 q 565 610 642 546 q 342 674 490 674 q 128 617 201 674 q 115 607 121 613 q 103 593 108 600 q 163 438 38 476 q 313 403 289 399 l 285 397 q 18 182 18 356 q 79 43 18 97 q 258 -10 139 -10 q 494 78 410 -10 q 650 -4 532 -4 q 697 1 683 -4 l 697 136 l 678 135 m 465 299 l 465 275 q 422 167 465 207 q 300 128 379 128 q 197 194 197 128 q 301 318 208 290 q 401 417 394 347 q 292 436 383 415 q 249 503 200 456 q 342 528 281 526 q 465 442 458 528 l 465 443 l 465 299 l 465 299 z "},"á":{"ha":715,"x_min":18,"x_max":697,"o":"m 678 135 q 642 176 642 135 l 642 431 q 565 610 642 546 q 342 674 490 674 q 128 617 201 674 q 115 607 121 613 q 103 593 108 600 q 163 438 38 476 q 313 403 289 399 l 285 397 q 18 182 18 356 q 79 43 18 97 q 258 -10 139 -10 q 494 78 410 -10 q 650 -4 532 -4 q 697 1 683 -4 l 697 136 l 678 135 m 465 299 l 465 275 q 422 167 465 207 q 300 128 379 128 q 197 194 197 128 q 301 318 208 290 q 401 417 394 347 q 292 436 383 415 q 249 503 200 456 q 342 528 281 526 q 465 442 458 528 l 465 443 l 465 299 l 465 299 z "},"â":{"ha":715,"x_min":18,"x_max":697,"o":"m 678 135 q 642 176 642 135 l 642 431 q 565 610 642 546 q 342 674 490 674 q 128 617 201 674 q 115 607 121 613 q 103 593 108 600 q 163 438 38 476 q 313 403 289 399 l 285 397 q 18 182 18 356 q 79 43 18 97 q 258 -10 139 -10 q 494 78 410 -10 q 650 -4 532 -4 q 697 1 683 -4 l 697 136 l 678 135 m 465 299 l 465 275 q 422 167 465 207 q 300 128 379 128 q 197 194 197 128 q 301 318 208 290 q 401 417 394 347 q 292 436 383 415 q 249 503 200 456 q 342 528 281 526 q 465 442 458 528 l 465 443 l 465 299 l 465 299 z "},"ã":{"ha":715,"x_min":18,"x_max":697,"o":"m 678 135 q 642 176 642 135 l 642 431 q 565 610 642 546 q 342 674 490 674 q 128 617 201 674 q 115 607 121 613 q 103 593 108 600 q 163 438 38 476 q 313 403 289 399 l 285 397 q 18 182 18 356 q 79 43 18 97 q 258 -10 139 -10 q 494 78 410 -10 q 650 -4 532 -4 q 697 1 683 -4 l 697 136 l 678 135 m 465 299 l 465 275 q 422 167 465 207 q 300 128 379 128 q 197 194 197 128 q 301 318 208 290 q 401 417 394 347 q 292 436 383 415 q 249 503 200 456 q 342 528 281 526 q 465 442 458 528 l 465 443 l 465 299 l 465 299 z "},"ä":{"ha":715,"x_min":18,"x_max":697,"o":"m 678 135 q 642 176 642 135 l 642 431 q 565 610 642 546 q 342 674 490 674 q 128 617 201 674 q 115 607 121 613 q 103 593 108 600 q 163 438 38 476 q 313 403 289 399 l 285 397 q 18 182 18 356 q 79 43 18 97 q 258 -10 139 -10 q 494 78 410 -10 q 650 -4 532 -4 q 697 1 683 -4 l 697 136 l 678 135 m 465 299 l 465 275 q 422 167 465 207 q 300 128 379 128 q 197 194 197 128 q 301 318 208 290 q 401 417 394 347 q 292 436 383 415 q 249 503 200 456 q 342 528 281 526 q 465 442 458 528 l 465 443 l 465 299 l 465 299 z "},"å":{"ha":715,"x_min":18,"x_max":697,"o":"m 678 135 q 642 176 642 135 l 642 431 q 565 610 642 546 q 342 674 490 674 q 128 617 201 674 q 115 607 121 613 q 103 593 108 600 q 163 438 38 476 q 313 403 289 399 l 285 397 q 18 182 18 356 q 79 43 18 97 q 258 -10 139 -10 q 494 78 410 -10 q 650 -4 532 -4 q 697 1 683 -4 l 697 136 l 678 135 m 465 299 l 465 275 q 422 167 465 207 q 300 128 379 128 q 197 194 197 128 q 301 318 208 290 q 401 417 394 347 q 292 436 383 415 q 249 503 200 456 q 342 528 281 526 q 465 442 458 528 l 465 443 l 465 299 l 465 299 z "},"b":{"ha":769,"x_min":47,"x_max":746,"o":"m 661 578 q 375 639 508 703 q 232 471 240 575 l 232 940 l 47 940 l 47 10 l 217 10 l 217 89 q 432 -6 285 -6 q 661 92 576 -6 q 746 335 746 188 q 726 471 746 408 q 661 578 707 533 l 661 578 m 515 201 q 393 150 469 150 q 272 201 318 150 q 226 335 226 254 q 272 467 226 415 q 393 519 318 519 q 515 467 469 519 q 561 335 561 415 q 515 201 561 254 l 515 201 z "},"c":{"ha":696,"x_min":21,"x_max":692,"o":"m 440 353 l 553 407 q 617 579 672 474 q 363 690 561 683 q 226 665 288 689 q 118 593 165 642 q 21 350 21 494 q 118 107 21 204 q 363 10 214 10 q 579 76 497 10 q 675 213 650 136 l 675 213 q 604 311 692 288 q 440 353 518 335 l 440 353 m 463 207 q 449 193 456 199 q 361 167 411 167 q 247 217 288 167 q 206 350 206 267 q 247 483 206 433 q 361 533 288 533 q 449 507 411 533 q 464 494 457 500 q 479 451 482 475 q 451 413 475 426 l 338 353 l 432 313 q 474 267 464 297 q 463 207 483 235 l 463 207 z "},"ç":{"ha":696,"x_min":21,"x_max":692,"o":"m 440 353 l 553 407 q 617 579 672 474 q 363 690 561 683 q 226 665 288 689 q 118 593 165 642 q 21 350 21 494 q 118 107 21 204 q 363 10 214 10 q 579 76 497 10 q 675 213 650 136 l 675 213 q 604 311 692 288 q 440 353 518 335 l 440 353 m 463 207 q 449 193 456 199 q 361 167 411 167 q 247 217 288 167 q 206 350 206 267 q 247 483 206 433 q 361 533 288 533 q 449 507 411 533 q 464 494 457 500 q 479 451 482 475 q 451 413 475 426 l 338 353 l 432 313 q 474 267 464 297 q 463 207 483 235 l 463 207 z "},"d":{"ha":769,"x_min":24,"x_max":722,"o":"m 538 940 l 538 471 q 394 639 529 575 q 108 578 261 703 q 43 471 63 533 q 24 335 24 408 q 108 92 24 188 q 336 -6 192 -6 q 551 89 485 -6 l 551 10 l 722 10 l 722 940 l 538 940 m 497 201 q 375 150 450 150 q 254 201 300 150 q 208 335 208 254 q 254 467 208 415 q 375 519 300 519 q 497 467 450 519 q 543 335 543 415 q 497 201 543 254 l 497 201 z "},"e":{"ha":703,"x_min":21,"x_max":686,"o":"m 683 439 q 667 499 686 442 q 579 614 647 554 q 363 681 497 681 q 118 583 214 681 q 21 342 21 486 q 118 99 21 196 q 363 1 214 1 q 579 68 497 1 q 669 189 643 121 l 671 189 l 682 226 l 247 331 l 683 439 m 247 475 q 361 525 288 525 q 449 497 411 525 q 450 497 450 497 q 468 449 475 476 q 431 410 463 419 l 206 351 q 247 475 208 428 l 247 475 m 490 235 q 449 185 478 206 q 361 157 411 157 q 247 208 288 157 q 207 307 214 247 l 490 235 z "},"è":{"ha":703,"x_min":21,"x_max":686,"o":"m 683 439 q 667 499 686 442 q 579 614 647 554 q 363 681 497 681 q 118 583 214 681 q 21 342 21 486 q 118 99 21 196 q 363 1 214 1 q 579 68 497 1 q 669 189 643 121 l 671 189 l 682 226 l 247 331 l 683 439 m 247 475 q 361 525 288 525 q 449 497 411 525 q 450 497 450 497 q 468 449 475 476 q 431 410 463 419 l 206 351 q 247 475 208 428 l 247 475 m 490 235 q 449 185 478 206 q 361 157 411 157 q 247 208 288 157 q 207 307 214 247 l 490 235 z "},"é":{"ha":703,"x_min":21,"x_max":686,"o":"m 683 439 q 667 499 686 442 q 579 614 647 554 q 363 681 497 681 q 118 583 214 681 q 21 342 21 486 q 118 99 21 196 q 363 1 214 1 q 579 68 497 1 q 669 189 643 121 l 671 189 l 682 226 l 247 331 l 683 439 m 247 475 q 361 525 288 525 q 449 497 411 525 q 450 497 450 497 q 468 449 475 476 q 431 410 463 419 l 206 351 q 247 475 208 428 l 247 475 m 490 235 q 449 185 478 206 q 361 157 411 157 q 247 208 288 157 q 207 307 214 247 l 490 235 z "},"ê":{"ha":703,"x_min":21,"x_max":686,"o":"m 683 439 q 667 499 686 442 q 579 614 647 554 q 363 681 497 681 q 118 583 214 681 q 21 342 21 486 q 118 99 21 196 q 363 1 214 1 q 579 68 497 1 q 669 189 643 121 l 671 189 l 682 226 l 247 331 l 683 439 m 247 475 q 361 525 288 525 q 449 497 411 525 q 450 497 450 497 q 468 449 475 476 q 431 410 463 419 l 206 351 q 247 475 208 428 l 247 475 m 490 235 q 449 185 478 206 q 361 157 411 157 q 247 208 288 157 q 207 307 214 247 l 490 235 z "},"ë":{"ha":703,"x_min":21,"x_max":686,"o":"m 683 439 q 667 499 686 442 q 579 614 647 554 q 363 681 497 681 q 118 583 214 681 q 21 342 21 486 q 118 99 21 196 q 363 1 214 1 q 579 68 497 1 q 669 189 643 121 l 671 189 l 682 226 l 247 331 l 683 439 m 247 475 q 361 525 288 525 q 449 497 411 525 q 450 497 450 497 q 468 449 475 476 q 431 410 463 419 l 206 351 q 247 475 208 428 l 247 475 m 490 235 q 449 185 478 206 q 361 157 411 157 q 247 208 288 157 q 207 307 214 247 l 490 235 z "},"f":{"ha":453,"x_min":-4,"x_max":456,"o":"m 306 604 l 306 717 q 378 789 306 789 q 407 788 399 789 l 407 939 l 351 942 q 182 883 244 942 q 121 713 121 826 l 121 604 l -4 604 l -4 574 l 121 574 l 121 11 l 306 11 l 306 574 l 456 574 l 456 604 l 306 604 z "},"g":{"ha":761,"x_min":21,"x_max":714,"o":"m 543 661 l 543 471 q 474 617 539 560 q 331 676 408 674 q 107 582 192 676 q 21 350 21 489 q 107 117 21 211 q 331 24 192 24 q 529 108 464 24 l 529 17 q 493 -76 529 -43 q 388 -110 457 -110 q 257 -24 275 -110 l 72 -24 q 161 -187 82 -114 q 386 -261 242 -261 q 625 -178 538 -261 q 714 36 714 -94 l 714 661 l 543 661 m 489 225 q 369 178 444 178 q 250 225 296 178 q 206 350 206 272 q 250 474 206 426 q 369 521 296 521 q 489 474 444 521 q 535 350 535 426 q 489 225 535 272 l 489 225 z "},"h":{"ha":711,"x_min":47,"x_max":669,"o":"m 606 597 q 381 642 499 683 q 232 488 263 600 l 232 933 l 47 933 l 47 3 l 232 3 l 232 374 q 268 478 232 440 q 371 515 304 515 q 486 388 486 515 l 486 3 l 669 3 l 669 408 q 606 597 669 526 l 606 597 z "},"i":{"ha":275,"x_min":28,"x_max":247,"o":"m 138 739 q 217 769 186 739 q 247 844 247 799 q 217 921 247 890 q 138 951 186 951 q 58 921 89 951 q 28 844 28 890 q 58 769 28 799 q 138 739 89 739 l 138 739 m 79 900 q 138 922 101 922 q 196 900 174 922 q 218 844 218 878 q 196 790 218 811 q 138 768 174 768 q 79 790 101 768 q 57 844 57 811 q 79 900 57 878 l 79 900 m 228 4 l 228 656 l 47 656 l 47 4 l 228 4 z "},"ì":{"ha":275,"x_min":28,"x_max":247,"o":"m 138 739 q 217 769 186 739 q 247 844 247 799 q 217 921 247 890 q 138 951 186 951 q 58 921 89 951 q 28 844 28 890 q 58 769 28 799 q 138 739 89 739 l 138 739 m 79 900 q 138 922 101 922 q 196 900 174 922 q 218 844 218 878 q 196 790 218 811 q 138 768 174 768 q 79 790 101 768 q 57 844 57 811 q 79 900 57 878 l 79 900 m 228 4 l 228 656 l 47 656 l 47 4 l 228 4 z "},"í":{"ha":275,"x_min":28,"x_max":247,"o":"m 138 739 q 217 769 186 739 q 247 844 247 799 q 217 921 247 890 q 138 951 186 951 q 58 921 89 951 q 28 844 28 890 q 58 769 28 799 q 138 739 89 739 l 138 739 m 79 900 q 138 922 101 922 q 196 900 174 922 q 218 844 218 878 q 196 790 218 811 q 138 768 174 768 q 79 790 101 768 q 57 844 57 811 q 79 900 57 878 l 79 900 m 228 4 l 228 656 l 47 656 l 47 4 l 228 4 z "},"î":{"ha":275,"x_min":28,"x_max":247,"o":"m 138 739 q 217 769 186 739 q 247 844 247 799 q 217 921 247 890 q 138 951 186 951 q 58 921 89 951 q 28 844 28 890 q 58 769 28 799 q 138 739 89 739 l 138 739 m 79 900 q 138 922 101 922 q 196 900 174 922 q 218 844 218 878 q 196 790 218 811 q 138 768 174 768 q 79 790 101 768 q 57 844 57 811 q 79 900 57 878 l 79 900 m 228 4 l 228 656 l 47 656 l 47 4 l 228 4 z "},"ï":{"ha":275,"x_min":28,"x_max":247,"o":"m 138 739 q 217 769 186 739 q 247 844 247 799 q 217 921 247 890 q 138 951 186 951 q 58 921 89 951 q 28 844 28 890 q 58 769 28 799 q 138 739 89 739 l 138 739 m 79 900 q 138 922 101 922 q 196 900 174 922 q 218 844 218 878 q 196 790 218 811 q 138 768 174 768 q 79 790 101 768 q 57 844 57 811 q 79 900 57 878 l 79 900 m 228 4 l 228 656 l 47 656 l 47 4 l 228 4 z "},"j":{"ha":265,"x_min":-82,"x_max":240,"o":"m 46 25 q 26 -31 50 19 q -82 -97 4 -81 l -82 -265 q 131 -183 50 -258 q 218 31 218 -100 l 218 656 l 49 656 l 46 25 m 131 739 q 210 769 179 739 q 240 844 240 799 q 210 921 240 890 q 131 951 179 951 q 51 921 82 951 q 21 844 21 890 q 51 769 21 799 q 131 739 82 739 l 131 739 m 72 900 q 131 922 93 922 q 189 900 167 922 q 210 844 211 878 q 189 790 211 811 q 131 768 167 768 q 72 790 93 768 q 50 844 50 811 q 72 900 50 878 l 72 900 z "},"k":{"ha":724,"x_min":46,"x_max":728,"o":"m 456 385 l 710 661 l 667 661 l 231 199 l 231 942 l 46 942 l 46 11 l 231 11 l 231 157 l 333 268 l 510 11 l 728 11 l 456 385 z "},"l":{"ha":278,"x_min":46,"x_max":232,"o":"m 232 8 l 232 939 l 46 939 l 46 8 l 232 8 z "},"m":{"ha":1140,"x_min":47,"x_max":1100,"o":"m 1035 597 q 811 642 929 683 q 661 489 693 601 q 606 597 646 553 q 381 642 499 683 q 232 488 263 600 l 232 644 l 47 644 l 47 3 l 232 3 l 232 374 q 268 478 232 440 q 371 515 304 515 q 486 388 486 515 l 486 3 l 669 3 l 669 408 q 669 431 669 419 q 697 478 678 458 q 800 515 733 515 q 915 388 915 515 l 915 3 l 1100 3 l 1100 408 q 1035 597 1100 526 l 1035 597 z "},"n":{"ha":711,"x_min":47,"x_max":669,"o":"m 606 597 q 381 642 499 683 q 232 488 263 600 l 232 644 l 47 644 l 47 3 l 232 3 l 232 374 q 268 478 232 440 q 371 515 304 515 q 486 388 486 515 l 486 3 l 669 3 l 669 408 q 606 597 669 526 l 606 597 z "},"ñ":{"ha":711,"x_min":47,"x_max":669,"o":"m 606 597 q 381 642 499 683 q 232 488 263 600 l 232 644 l 47 644 l 47 3 l 232 3 l 232 374 q 268 478 232 440 q 371 515 304 515 q 486 388 486 515 l 486 3 l 669 3 l 669 408 q 606 597 669 526 l 606 597 z "},"o":{"ha":754,"x_min":21,"x_max":732,"o":"m 635 590 q 376 689 536 689 q 119 590 218 689 q 21 346 21 490 q 119 103 21 203 q 376 4 218 4 q 635 103 536 4 q 732 346 732 203 q 635 590 732 490 l 635 590 m 500 210 q 376 160 451 160 q 253 210 301 160 q 204 346 204 260 q 253 483 204 433 q 376 533 301 533 q 500 483 451 533 q 549 346 549 433 q 500 210 549 260 l 500 210 z "},"ò":{"ha":754,"x_min":21,"x_max":732,"o":"m 635 590 q 376 689 536 689 q 119 590 218 689 q 21 346 21 490 q 119 103 21 203 q 376 4 218 4 q 635 103 536 4 q 732 346 732 203 q 635 590 732 490 l 635 590 m 500 210 q 376 160 451 160 q 253 210 301 160 q 204 346 204 260 q 253 483 204 433 q 376 533 301 533 q 500 483 451 533 q 549 346 549 433 q 500 210 549 260 l 500 210 z "},"ó":{"ha":754,"x_min":21,"x_max":732,"o":"m 635 590 q 376 689 536 689 q 119 590 218 689 q 21 346 21 490 q 119 103 21 203 q 376 4 218 4 q 635 103 536 4 q 732 346 732 203 q 635 590 732 490 l 635 590 m 500 210 q 376 160 451 160 q 253 210 301 160 q 204 346 204 260 q 253 483 204 433 q 376 533 301 533 q 500 483 451 533 q 549 346 549 433 q 500 210 549 260 l 500 210 z "},"ô":{"ha":754,"x_min":21,"x_max":732,"o":"m 635 590 q 376 689 536 689 q 119 590 218 689 q 21 346 21 490 q 119 103 21 203 q 376 4 218 4 q 635 103 536 4 q 732 346 732 203 q 635 590 732 490 l 635 590 m 500 210 q 376 160 451 160 q 253 210 301 160 q 204 346 204 260 q 253 483 204 433 q 376 533 301 533 q 500 483 451 533 q 549 346 549 433 q 500 210 549 260 l 500 210 z "},"õ":{"ha":754,"x_min":21,"x_max":732,"o":"m 635 590 q 376 689 536 689 q 119 590 218 689 q 21 346 21 490 q 119 103 21 203 q 376 4 218 4 q 635 103 536 4 q 732 346 732 203 q 635 590 732 490 l 635 590 m 500 210 q 376 160 451 160 q 253 210 301 160 q 204 346 204 260 q 253 483 204 433 q 376 533 301 533 q 500 483 451 533 q 549 346 549 433 q 500 210 549 260 l 500 210 z "},"ö":{"ha":754,"x_min":21,"x_max":732,"o":"m 635 590 q 376 689 536 689 q 119 590 218 689 q 21 346 21 490 q 119 103 21 203 q 376 4 218 4 q 635 103 536 4 q 732 346 732 203 q 635 590 732 490 l 635 590 m 500 210 q 376 160 451 160 q 253 210 301 160 q 204 346 204 260 q 253 483 204 433 q 376 533 301 533 q 500 483 451 533 q 549 346 549 433 q 500 210 549 260 l 500 210 z "},"ø":{"ha":754,"x_min":21,"x_max":732,"o":"m 635 590 q 376 689 536 689 q 119 590 218 689 q 21 346 21 490 q 119 103 21 203 q 376 4 218 4 q 635 103 536 4 q 732 346 732 203 q 635 590 732 490 l 635 590 m 500 210 q 376 160 451 160 q 253 210 301 160 q 204 346 204 260 q 253 483 204 433 q 376 533 301 533 q 500 483 451 533 q 549 346 549 433 q 500 210 549 260 l 500 210 z "},"p":{"ha":769,"x_min":47,"x_max":746,"o":"m 661 588 q 432 683 576 683 q 217 589 285 683 l 217 669 l 47 669 l 47 -261 l 232 -261 l 232 208 q 375 39 240 103 q 661 100 508 -25 q 726 208 707 146 q 746 344 746 271 q 661 588 746 490 l 661 588 m 515 211 q 393 158 469 158 q 272 211 318 158 q 226 344 226 264 q 272 476 226 425 q 393 529 318 529 q 515 476 469 529 q 561 344 561 425 q 515 211 561 264 l 515 211 z "},"q":{"ha":769,"x_min":24,"x_max":722,"o":"m 551 669 l 551 589 q 336 683 485 683 q 108 588 192 683 q 24 344 24 490 q 43 208 24 271 q 108 100 63 146 q 394 39 261 -25 q 538 208 529 103 l 538 -261 l 722 -261 l 722 669 l 551 669 m 497 211 q 375 158 450 158 q 254 211 300 158 q 208 344 208 264 q 254 476 208 425 q 375 529 300 529 q 497 476 450 529 q 543 344 543 425 q 497 211 543 264 l 497 211 z "},"r":{"ha":676,"x_min":47,"x_max":669,"o":"m 606 597 q 381 642 499 683 q 232 488 263 600 l 232 644 l 47 644 l 47 3 l 232 3 l 232 268 l 669 415 q 606 597 668 529 l 606 597 m 431 364 l 232 297 l 232 374 q 268 478 232 440 q 371 515 304 515 q 431 500 406 515 q 471 453 457 485 q 469 400 482 425 q 431 364 458 374 l 431 364 z "},"s":{"ha":685,"x_min":17,"x_max":660,"o":"m 617 315 q 513 375 574 360 q 392 397 451 390 q 288 419 331 406 q 244 463 244 433 q 272 508 244 490 q 347 526 299 526 q 428 504 399 526 q 461 449 458 482 l 657 449 q 576 600 651 533 q 349 668 503 668 q 131 606 214 668 q 49 453 49 543 q 92 338 49 381 q 196 279 135 294 q 318 256 257 264 q 422 233 379 247 q 465 189 465 218 q 435 146 465 161 q 347 129 404 129 q 257 153 288 129 q 222 214 226 178 l 17 214 q 342 -12 35 -12 q 575 47 489 -12 q 660 196 660 106 q 617 315 660 271 l 617 315 z "},"t":{"ha":564,"x_min":-11,"x_max":547,"o":"m 547 235 q 517 179 539 201 q 414 142 481 142 q 299 269 299 142 l 299 501 l 508 501 l 508 644 l 299 644 l 299 772 l 115 772 l 115 644 l -11 644 l 115 501 l 115 249 q 179 60 115 131 q 428 29 308 -44 q 547 235 546 103 l 547 235 z "},"u":{"ha":710,"x_min":39,"x_max":661,"o":"m 478 654 l 478 283 q 442 179 478 217 q 339 142 404 142 q 224 269 224 142 l 224 654 l 39 654 l 39 249 q 104 60 39 131 q 328 15 210 -26 q 478 169 446 57 l 478 13 l 661 13 l 661 654 l 478 654 z "},"ù":{"ha":710,"x_min":39,"x_max":661,"o":"m 478 654 l 478 283 q 442 179 478 217 q 339 142 404 142 q 224 269 224 142 l 224 654 l 39 654 l 39 249 q 104 60 39 131 q 328 15 210 -26 q 478 169 446 57 l 478 13 l 661 13 l 661 654 l 478 654 z "},"ú":{"ha":710,"x_min":39,"x_max":661,"o":"m 478 654 l 478 283 q 442 179 478 217 q 339 142 404 142 q 224 269 224 142 l 224 654 l 39 654 l 39 249 q 104 60 39 131 q 328 15 210 -26 q 478 169 446 57 l 478 13 l 661 13 l 661 654 l 478 654 z "},"û":{"ha":710,"x_min":39,"x_max":661,"o":"m 478 654 l 478 283 q 442 179 478 217 q 339 142 404 142 q 224 269 224 142 l 224 654 l 39 654 l 39 249 q 104 60 39 131 q 328 15 210 -26 q 478 169 446 57 l 478 13 l 661 13 l 661 654 l 478 654 z "},"ü":{"ha":710,"x_min":39,"x_max":661,"o":"m 478 654 l 478 283 q 442 179 478 217 q 339 142 404 142 q 224 269 224 142 l 224 654 l 39 654 l 39 249 q 104 60 39 131 q 328 15 210 -26 q 478 169 446 57 l 478 13 l 661 13 l 661 654 l 478 654 z "},"v":{"ha":728,"x_min":-7,"x_max":733,"o":"m 733 654 l 699 654 l 442 46 l 189 654 l -7 654 l 268 4 l 458 4 l 458 4 l 458 4 l 460 4 l 460 4 l 733 654 z "},"w":{"ha":1204,"x_min":-7,"x_max":1210,"o":"m 1014 654 l 761 46 l 618 382 l 733 654 l 699 654 l 601 422 l 504 654 l 469 654 l 585 382 l 442 46 l 189 654 l -7 654 l 268 4 l 458 4 l 458 4 l 458 4 l 460 4 l 460 4 l 601 342 l 743 4 l 743 4 l 744 4 l 744 4 l 744 4 l 935 4 l 1210 654 l 1014 654 z "},"x":{"ha":696,"x_min":-1,"x_max":696,"o":"m 453 326 l 689 646 l 476 646 l 347 471 l 218 646 l 6 646 l 242 326 l -1 -4 l 211 -4 l 347 182 l 483 -4 l 696 -4 l 453 326 z "},"y":{"ha":711,"x_min":22,"x_max":663,"o":"m 663 19 l 663 654 l 478 654 l 478 283 q 442 179 478 217 q 339 142 406 142 q 224 269 224 142 l 224 654 l 39 654 l 39 249 q 104 60 39 131 q 329 15 211 -26 q 478 169 447 57 l 478 13 l 479 13 q 443 -76 478 -43 q 338 -110 407 -110 q 207 -24 225 -110 l 22 -24 q 111 -187 32 -114 q 335 -261 190 -261 q 575 -178 486 -261 q 663 19 657 -100 l 663 19 z "},"ý":{"ha":711,"x_min":22,"x_max":663,"o":"m 663 19 l 663 654 l 478 654 l 478 283 q 442 179 478 217 q 339 142 406 142 q 224 269 224 142 l 224 654 l 39 654 l 39 249 q 104 60 39 131 q 329 15 211 -26 q 478 169 447 57 l 478 13 l 479 13 q 443 -76 478 -43 q 338 -110 407 -110 q 207 -24 225 -110 l 22 -24 q 111 -187 32 -114 q 335 -261 190 -261 q 575 -178 486 -261 q 663 19 657 -100 l 663 19 z "},"ÿ":{"ha":711,"x_min":22,"x_max":663,"o":"m 663 19 l 663 654 l 478 654 l 478 283 q 442 179 478 217 q 339 142 406 142 q 224 269 224 142 l 224 654 l 39 654 l 39 249 q 104 60 39 131 q 329 15 211 -26 q 478 169 447 57 l 478 13 l 479 13 q 443 -76 478 -43 q 338 -110 407 -110 q 207 -24 225 -110 l 22 -24 q 111 -187 32 -114 q 335 -261 190 -261 q 575 -178 486 -261 q 663 19 657 -100 l 663 19 z "},"z":{"ha":594,"x_min":22,"x_max":572,"o":"m 92 165 l 568 518 l 568 663 l 26 663 l 26 510 l 500 510 l 22 157 l 22 13 l 572 13 l 572 165 l 92 165 z "}," ":{"ha":494,"x_min":0,"x_max":0,"o":"z "},"­":{"ha":0,"x_min":0,"x_max":0,"o":"z "},"":{"ha":1540,"x_min":24,"x_max":1521,"o":"m 722 486 l 722 950 l 538 950 l 538 481 q 394 649 529 585 q 108 588 261 713 q 43 481 63 543 q 24 344 24 418 q 108 101 24 199 q 336 4 192 4 q 551 99 485 4 l 551 19 l 722 19 l 722 271 q 761 353 726 326 q 800 399 796 379 q 760 432 793 428 q 722 486 726 435 l 722 486 m 497 213 q 375 160 450 160 q 254 213 300 160 q 208 344 208 264 q 254 478 208 425 q 375 529 300 529 q 497 478 450 529 q 543 344 543 425 q 497 213 543 264 l 497 213 m 1501 144 q 1465 188 1465 144 l 1465 440 q 1389 619 1465 557 q 1165 683 1314 683 q 951 628 1025 683 q 938 617 944 622 q 926 604 932 611 q 986 449 861 488 q 1136 413 1111 410 l 1108 408 q 842 192 842 365 q 903 54 842 107 q 1082 0 963 0 q 1318 88 1233 0 q 1472 6 1356 6 q 1521 11 1507 6 l 1521 146 l 1501 144 m 1289 308 l 1289 285 q 1246 178 1289 218 q 1124 138 1203 138 q 1019 204 1021 138 q 1125 329 1032 300 q 1225 426 1218 357 q 1115 446 1207 425 q 1072 514 1022 465 q 1165 538 1104 538 q 1289 453 1282 538 l 1289 453 l 1288 308 l 1289 308 z "},"":{"ha":2010,"x_min":47,"x_max":1968,"o":"m 917 0 l 1100 0 l 1100 289 l 917 113 l 917 0 m 1904 594 q 1681 640 1797 681 q 1531 488 1563 599 q 1474 594 1515 551 q 1250 640 1368 682 q 1100 486 1132 599 q 1096 460 1097 474 q 1035 594 1083 542 q 811 640 929 681 q 661 488 693 599 q 606 594 646 551 q 381 640 499 682 q 232 486 263 599 l 232 643 l 47 643 l 47 0 l 232 0 l 232 371 q 268 476 232 438 q 371 514 304 514 q 486 386 486 514 l 486 0 l 669 0 l 669 406 q 669 429 669 418 q 697 476 678 456 q 800 514 733 514 q 915 386 915 514 l 915 176 l 1100 353 l 1100 376 q 1111 432 1103 406 q 1138 476 1121 460 q 1239 514 1174 514 q 1356 386 1356 514 l 1356 0 l 1539 0 l 1539 406 q 1539 429 1539 418 q 1567 476 1547 456 q 1668 514 1603 514 q 1785 386 1785 514 l 1785 0 l 1968 0 l 1968 406 q 1904 594 1968 525 l 1904 594 z "},"":{"ha":1503,"x_min":47,"x_max":1456,"o":"m 810 389 q 682 433 704 393 q 660 497 660 472 q 606 597 643 556 q 381 643 499 683 q 232 489 263 601 l 232 644 l 47 644 l 47 3 l 232 3 l 232 374 q 268 478 232 440 q 371 517 304 517 q 486 389 486 517 l 486 3 l 669 3 l 669 310 q 724 353 675 351 q 810 389 772 354 l 810 389 m 1435 144 q 1399 188 1399 144 l 1399 440 q 1324 619 1399 557 q 1099 683 1247 683 q 886 628 960 683 q 872 617 879 622 q 860 604 865 611 q 921 449 794 488 q 1069 413 1046 410 l 1042 408 q 775 192 775 365 q 836 54 775 107 q 1015 0 897 0 q 1251 88 1167 0 q 1407 6 1289 6 q 1456 11 1440 6 l 1456 146 l 1435 144 m 1222 308 l 1222 285 q 1179 178 1222 218 q 1057 138 1136 138 q 954 204 954 138 q 1058 329 965 300 q 1158 426 1151 357 q 1049 446 1140 425 q 1006 514 957 465 q 1099 538 1039 538 q 1222 453 1215 538 l 1222 453 l 1222 308 l 1222 308 z "}}}
